<?xml version="1.0" ?><svg id="object" viewBox="0 0 32 32" xmlns="http://www.w3.org/2000/svg"><defs><style>.cls-1{fill:#eef5fd;}.cls-2{fill:#6d6daa;}</style></defs><title/><rect class="cls-1" height="12" rx="1" ry="1" width="12" x="2" y="2"/><path class="cls-2" d="M13,15H3a2,2,0,0,1-2-2V3A2,2,0,0,1,3,1H13a2,2,0,0,1,2,2V13A2,2,0,0,1,13,15ZM3,3V13H13V3Z"/><rect class="cls-1" height="12" rx="1" ry="1" width="12" x="18" y="2"/><path class="cls-2" d="M29,15H19a2,2,0,0,1-2-2V3a2,2,0,0,1,2-2H29a2,2,0,0,1,2,2V13A2,2,0,0,1,29,15ZM19,3V13H29V3Z"/><rect class="cls-1" height="12" rx="1" ry="1" width="12" x="2" y="18"/><path class="cls-2" d="M13,31H3a2,2,0,0,1-2-2V19a2,2,0,0,1,2-2H13a2,2,0,0,1,2,2V29A2,2,0,0,1,13,31ZM3,19V29H13V19Z"/><rect class="cls-1" height="12" rx="1" ry="1" width="12" x="18" y="18"/><path class="cls-2" d="M29,31H19a2,2,0,0,1-2-2V19a2,2,0,0,1,2-2H29a2,2,0,0,1,2,2V29A2,2,0,0,1,29,31ZM19,19V29H29V19Z"/><path class="cls-2" d="M8,11.5a1,1,0,0,1-1-1v-5a1,1,0,0,1,2,0v5A1,1,0,0,1,8,11.5Z"/><path class="cls-2" d="M10.5,9h-5a1,1,0,0,1,0-2h5a1,1,0,0,1,0,2Z"/><path class="cls-2" d="M24,22.7a1,1,0,0,1-1-1v-.2a1,1,0,0,1,2,0v.2A1,1,0,0,1,24,22.7Z"/><path class="cls-2" d="M24,27.5a1,1,0,0,1-1-1v-.2a1,1,0,1,1,2,0v.2A1,1,0,0,1,24,27.5Z"/><path class="cls-2" d="M26.5,25h-5a1,1,0,0,1,0-2h5a1,1,0,0,1,0,2Z"/><path class="cls-2" d="M5.5,27.5a1,1,0,0,1-.71-.29,1,1,0,0,1,0-1.42l5-5a1,1,0,0,1,1.42,1.42l-5,5A1,1,0,0,1,5.5,27.5Z"/><path class="cls-2" d="M10.5,27.5a1,1,0,0,1-.71-.29l-5-5a1,1,0,0,1,1.42-1.42l5,5a1,1,0,0,1,0,1.42A1,1,0,0,1,10.5,27.5Z"/><path class="cls-2" d="M26.5,9h-5a1,1,0,0,1,0-2h5a1,1,0,0,1,0,2Z"/></svg>