<svg width="20" height="20" viewBox="0 0 20 20" fill="none" xmlns="http://www.w3.org/2000/svg">
<path d="M14.5662 19.999H14.5942C15.1222 19.999 15.6212 19.791 15.9992 19.413L18.7112 16.701C18.8042 16.6082 18.8779 16.498 18.9282 16.3767C18.9785 16.2554 19.0044 16.1253 19.0044 15.994C19.0044 15.8627 18.9785 15.7326 18.9282 15.6113C18.8779 15.49 18.8042 15.3798 18.7112 15.287L14.7112 11.287C14.6184 11.1941 14.5082 11.1203 14.3869 11.07C14.2656 11.0197 14.1355 10.9938 14.0042 10.9938C13.8729 10.9938 13.7428 11.0197 13.6215 11.07C13.5002 11.1203 13.39 11.1941 13.2972 11.287L11.7032 12.881C10.9642 12.661 9.58522 12.161 8.71122 11.287C7.83722 10.413 7.33722 9.034 7.11722 8.295L8.71122 6.701C8.80416 6.60821 8.8779 6.49801 8.92821 6.37669C8.97852 6.25538 9.00442 6.12533 9.00442 5.994C9.00442 5.86267 8.97852 5.73262 8.92821 5.61131C8.8779 5.48999 8.80416 5.37979 8.71122 5.287L4.71122 1.287C4.52004 1.10655 4.2671 1.00603 4.00422 1.00603C3.74133 1.00603 3.48839 1.10655 3.29722 1.287L0.586217 3.999C0.206217 4.379 -0.00778346 4.901 0.000216545 5.434C0.0232165 6.858 0.400216 11.804 4.29822 15.702C8.19622 19.6 13.1422 19.976 14.5662 19.999ZM4.00522 3.408L6.59122 5.994L5.29822 7.287C5.18055 7.40434 5.09411 7.54926 5.04678 7.70855C4.99945 7.86784 4.99272 8.03644 5.02722 8.199C5.05122 8.314 5.63822 11.041 7.29822 12.701C8.95822 14.361 11.6852 14.948 11.8002 14.972C11.9628 15.0067 12.1314 15 12.2907 14.9527C12.4501 14.9054 12.595 14.8188 12.7122 14.701L14.0052 13.408L16.5912 15.994L14.5852 17.999C13.3372 17.978 9.06722 17.643 5.71222 14.287C2.34622 10.921 2.02022 6.636 2.00022 5.413L4.00522 3.408ZM17.9992 8.999H19.9992C19.9992 3.869 16.1262 0 10.9892 0V2C15.0512 2 17.9992 4.943 17.9992 8.999Z" fill="#4E53B7"/>
</svg>
