<svg width="675" height="552" viewBox="0 0 675 552" fill="none" xmlns="http://www.w3.org/2000/svg">
<rect y="424" width="530" height="21" rx="10" fill="#797979"/>
<rect x="621.588" y="3.76859" width="448.099" height="17.7549" rx="8.87743" transform="rotate(101.752 621.588 3.76859)" fill="#797979"/>
<rect x="272" y="152" width="202" height="13" rx="6.5" transform="rotate(90 272 152)" fill="#797979"/>
<rect x="675" y="20" width="71" height="18" rx="9" transform="rotate(-180 675 20)" fill="#797979"/>
<circle cx="108" cy="512" r="33" stroke="#797979" stroke-width="14"/>
<circle cx="418" cy="512" r="33" stroke="#797979" stroke-width="14"/>
<path d="M261.522 372.938L215.973 329.666C213.776 327.579 213.776 324.196 215.973 322.109L221.286 317.062C223.479 314.979 227.033 314.975 229.231 317.053L265.5 351.347L301.768 317.053C303.967 314.975 307.521 314.979 309.714 317.062L315.026 322.109C317.223 324.196 317.223 327.579 315.026 329.666L269.478 372.938C267.281 375.025 263.719 375.025 261.522 372.938Z" fill="#797979"/>
</svg>
