<svg width="1357" height="264" viewBox="0 0 1357 264" fill="none" xmlns="http://www.w3.org/2000/svg">
<path d="M980.392 137.931C985.817 137.931 990.546 137.271 994.578 135.951C998.611 134.558 1001.95 132.615 1004.59 130.123C1007.3 127.557 1009.31 124.477 1010.63 120.885C1011.95 117.219 1012.61 113.15 1012.61 108.678C1012.61 104.426 1011.95 100.577 1010.63 97.1311C1009.31 93.6853 1007.34 90.7527 1004.7 88.3334C1002.06 85.914 998.721 84.0811 994.688 82.8348C990.656 81.5151 985.891 80.8553 980.392 80.8553H958.288V137.931H980.392ZM980.392 57.9812C991.023 57.9812 1000.22 59.2276 1007.99 61.7203C1015.77 64.213 1022.18 67.6954 1027.24 72.1676C1032.3 76.6397 1036.04 81.9917 1038.46 88.2234C1040.95 94.4551 1042.2 101.273 1042.2 108.678C1042.2 116.376 1040.91 123.451 1038.35 129.903C1035.78 136.281 1031.93 141.78 1026.8 146.398C1021.67 151.017 1015.22 154.61 1007.44 157.176C999.747 159.742 990.729 161.025 980.392 161.025H958.288V217H928.705V57.9812H980.392ZM1137.73 156.956L1118.38 104.059C1117.42 101.713 1116.43 98.9273 1115.41 95.7015C1114.38 92.4756 1113.35 88.9932 1112.33 85.2542C1111.37 88.9932 1110.38 92.5123 1109.36 95.8114C1108.33 99.0373 1107.34 101.86 1106.39 104.279L1087.14 156.956H1137.73ZM1189.97 217H1167.09C1164.53 217 1162.44 216.377 1160.82 215.13C1159.21 213.811 1158 212.198 1157.2 210.292L1145.32 177.85H1079.45L1067.57 210.292C1066.98 211.978 1065.85 213.518 1064.16 214.911C1062.47 216.304 1060.38 217 1057.89 217H1034.8L1097.37 57.9812H1127.5L1189.97 217ZM1347.63 137.491C1347.63 149.148 1345.69 159.851 1341.8 169.602C1337.92 179.353 1332.45 187.748 1325.42 194.786C1318.38 201.824 1309.91 207.286 1300.01 211.172C1290.11 215.057 1279.12 217 1267.02 217H1206.43V57.9812H1267.02C1279.12 57.9812 1290.11 59.9607 1300.01 63.9197C1309.91 67.8054 1318.38 73.2673 1325.42 80.3055C1332.45 87.2703 1337.92 95.6281 1341.8 105.379C1345.69 115.13 1347.63 125.834 1347.63 137.491ZM1317.28 137.491C1317.28 128.766 1316.1 120.958 1313.76 114.067C1311.49 107.102 1308.15 101.237 1303.75 96.4713C1299.43 91.6325 1294.15 87.9301 1287.92 85.3641C1281.76 82.7981 1274.79 81.5151 1267.02 81.5151H1236.12V193.466H1267.02C1274.79 193.466 1281.76 192.183 1287.92 189.617C1294.15 187.051 1299.43 183.385 1303.75 178.62C1308.15 173.781 1311.49 167.916 1313.76 161.025C1316.1 154.06 1317.28 146.215 1317.28 137.491Z" fill="url(#paint0_linear)"/>
<path d="M110.851 192.586V217H17.7054V57.9812H47.2877V192.586H110.851ZM215.991 156.956L196.636 104.059C195.683 101.713 194.693 98.9273 193.667 95.7015C192.64 92.4756 191.614 88.9932 190.587 85.2542C189.634 88.9932 188.645 92.5123 187.618 95.8114C186.592 99.0373 185.602 101.86 184.649 104.279L165.404 156.956H215.991ZM268.227 217H245.353C242.787 217 240.698 216.377 239.085 215.13C237.472 213.811 236.262 212.198 235.456 210.292L223.579 177.85H157.706L145.829 210.292C145.243 211.978 144.106 213.518 142.42 214.911C140.734 216.304 138.644 217 136.152 217H113.058L175.631 57.9812H205.764L268.227 217ZM344.824 193.136C350.543 193.136 355.638 192.183 360.11 190.277C364.656 188.371 368.468 185.695 371.547 182.249C374.626 178.803 376.972 174.624 378.585 169.712C380.272 164.8 381.115 159.302 381.115 153.217V57.9812H410.697V153.217C410.697 162.674 409.157 171.435 406.078 179.5C403.072 187.491 398.71 194.419 392.992 200.284C387.346 206.076 380.455 210.622 372.317 213.921C364.179 217.147 355.015 218.76 344.824 218.76C334.56 218.76 325.359 217.147 317.221 213.921C309.083 210.622 302.155 206.076 296.437 200.284C290.792 194.419 286.429 187.491 283.35 179.5C280.344 171.435 278.841 162.674 278.841 153.217V57.9812H308.424V153.107C308.424 159.192 309.23 164.69 310.843 169.602C312.529 174.514 314.912 178.73 317.991 182.249C321.144 185.695 324.956 188.371 329.428 190.277C333.974 192.183 339.106 193.136 344.824 193.136ZM578.115 57.9812V217H562.939C560.593 217 558.613 216.633 557 215.9C555.461 215.094 553.958 213.774 552.492 211.941L469.463 105.929C469.903 110.768 470.123 115.24 470.123 119.345V217H444.06V57.9812H459.566C460.812 57.9812 461.875 58.0546 462.755 58.2012C463.708 58.2745 464.514 58.4944 465.174 58.861C465.907 59.1543 466.604 59.6308 467.264 60.2906C467.923 60.8772 468.657 61.6836 469.463 62.71L552.821 169.162C552.602 166.596 552.418 164.067 552.272 161.574C552.125 159.082 552.052 156.772 552.052 154.646V57.9812H578.115ZM722.729 179.5C724.342 179.5 725.772 180.123 727.018 181.369L738.675 194.016C732.223 202.007 724.269 208.129 714.811 212.381C705.427 216.633 694.137 218.76 680.94 218.76C669.136 218.76 658.506 216.743 649.048 212.711C639.664 208.679 631.636 203.07 624.964 195.885C618.293 188.701 613.161 180.123 609.568 170.152C606.049 160.181 604.29 149.294 604.29 137.491C604.29 125.54 606.196 114.617 610.008 104.719C613.821 94.7484 619.173 86.1706 626.064 78.9858C633.029 71.801 641.314 66.2291 650.918 62.2701C660.522 58.2378 671.152 56.2217 682.809 56.2217C694.393 56.2217 704.657 58.1279 713.601 61.9402C722.619 65.7526 730.28 70.7379 736.586 76.8963L726.688 90.6428C726.102 91.5225 725.332 92.2923 724.379 92.9522C723.499 93.612 722.253 93.9419 720.64 93.9419C719.54 93.9419 718.404 93.6487 717.231 93.0621C716.058 92.4023 714.775 91.6325 713.382 90.7527C711.989 89.7997 710.376 88.7733 708.543 87.6735C706.71 86.5738 704.584 85.5841 702.164 84.7043C699.745 83.7512 696.922 82.9814 693.697 82.3949C690.544 81.7351 686.878 81.4052 682.699 81.4052C675.588 81.4052 669.063 82.6882 663.125 85.2542C657.259 87.7469 652.201 91.4126 647.949 96.2513C643.696 101.017 640.397 106.882 638.051 113.847C635.705 120.738 634.532 128.62 634.532 137.491C634.532 146.435 635.778 154.39 638.271 161.354C640.837 168.319 644.283 174.184 648.608 178.95C652.934 183.715 658.029 187.381 663.894 189.947C669.76 192.44 676.065 193.686 682.809 193.686C686.842 193.686 690.471 193.466 693.697 193.026C696.996 192.586 700.002 191.89 702.714 190.937C705.5 189.984 708.103 188.774 710.522 187.308C713.015 185.768 715.471 183.899 717.89 181.699C718.624 181.039 719.393 180.526 720.2 180.16C721.006 179.72 721.849 179.5 722.729 179.5ZM892.994 57.9812V217H863.302V147.498H788.631V217H758.939V57.9812H788.631V126.383H863.302V57.9812H892.994Z" fill="url(#paint1_linear)"/>
<defs>
<linearGradient id="paint0_linear" x1="911" y1="147" x2="1391" y2="132" gradientUnits="userSpaceOnUse">
<stop offset="0.109375" stop-color="#7D0F13"/>
<stop offset="0.526042" stop-color="#40080A"/>
<stop offset="0.9375"/>
</linearGradient>
<linearGradient id="paint1_linear" x1="35" y1="132" x2="898" y2="132" gradientUnits="userSpaceOnUse">
<stop stop-color="#ED1C24"/>
<stop offset="0.307292" stop-color="#E51B23"/>
<stop offset="0.708333" stop-color="#D01920"/>
<stop offset="0.963542" stop-color="#AD141A"/>
</linearGradient>
</defs>
</svg>
