<svg height="512pt" viewBox="0 -1 512 512" width="512pt" xmlns="http://www.w3.org/2000/svg"><path d="m460.683594 194.417969 51.316406-79.832031-104.425781-40.164063-30.945313 30.945313 75.171875 28.910156-21.929687 34.113281-82.558594-33.707031-30.507812 30.507812 72.933593 29.617188-133.78125 50.707031-132.371093-50.175781 71.03125-27.148438-30.96875-30.96875-82.046876 31.363282-.128906.351562-21.445312-33.625 73.457031-28.253906-30.941406-30.945313-102.542969 39.441407 50.757812 79.597656-50.636718 78.773437 49.886718 20.066407v138.695312l206.988282 78.035156 204.910156-78.085937v-138.644531l49.886719-20.066407zm-400.777344 60.453125 21.144531-32.886719 139.128907 52.734375-23.726563 35.085938zm392.101562 0-136.546874 54.933594-23.726563-35.085938 139.128906-52.734375zm-362.007812 55.210937 121.488281 48.875 24.472657-36.191406v137.289063l-145.960938-55.027344zm331.914062 95-145.960937 55.621094v-137.9375l24.472656 36.191406 121.488281-48.875zm-222.75-292.09375-28.277343-28.277343 84.710937-84.710938 84.710938 84.710938-28.277344 28.277343-36.078125-36.078125v118.503906h-39.992187v-119.226562zm0 0"/></svg>