<?xml version="1.0"?>
<svg xmlns="http://www.w3.org/2000/svg" xmlns:xlink="http://www.w3.org/1999/xlink" xmlns:svgjs="http://svgjs.com/svgjs" version="1.1" width="512" height="512" x="0" y="0" viewBox="0 0 24 24" style="enable-background:new 0 0 512 512" xml:space="preserve"><g transform="matrix(1,0,0,1,0,2.1316282072803006e-14)"><path xmlns="http://www.w3.org/2000/svg" d="m16.5 20h-15.174c-.731 0-1.326-.595-1.326-1.326v-12.174c0-.276.224-.5.5-.5h19c.276 0 .5.224.5.5v4c0 .276-.224.5-.5.5s-.5-.224-.5-.5v-3.5h-18v11.674c0 .18.146.326.326.326h15.174c.276 0 .5.224.5.5s-.224.5-.5.5z" fill="#000000" data-original="#000000" style=""/><path xmlns="http://www.w3.org/2000/svg" d="m19.5 7c-.176 0-.347-.093-.438-.259l-3.02-5.482c-.087-.16-.255-.259-.438-.259h-11.208c-.183 0-.351.099-.438.259l-3.02 5.482c-.133.243-.439.328-.679.197-.242-.133-.33-.438-.197-.679l3.02-5.482c.263-.48.767-.777 1.314-.777h11.209c.547 0 1.051.297 1.314.776l3.019 5.482c.134.242.046.546-.196.679-.077.043-.16.063-.242.063z" fill="#000000" data-original="#000000" style=""/><path xmlns="http://www.w3.org/2000/svg" d="m10 7c-.276 0-.5-.224-.5-.5v-6c0-.276.224-.5.5-.5s.5.224.5.5v6c0 .276-.224.5-.5.5z" fill="#000000" data-original="#000000" style=""/><path xmlns="http://www.w3.org/2000/svg" d="m23.5 24c-.276 0-.5-.224-.5-.5v-2c0-3.033-2.468-5.5-5.5-5.5h-2c-.276 0-.5-.224-.5-.5s.224-.5.5-.5h2c3.584 0 6.5 2.916 6.5 6.5v2c0 .276-.224.5-.5.5z" fill="#000000" data-original="#000000" style=""/><path xmlns="http://www.w3.org/2000/svg" d="m19 19c-.115 0-.231-.04-.325-.121l-3.5-3c-.112-.094-.175-.233-.175-.379s.063-.285.175-.379l3.5-3c.209-.179.523-.156.705.054.18.209.155.525-.055.705l-3.056 2.62 3.057 2.621c.21.18.234.495.055.705-.101.115-.24.174-.381.174z" fill="#000000" data-original="#000000" style=""/></g></svg>
