<svg width="904" height="1080" viewBox="0 0 904 1080" fill="none" xmlns="http://www.w3.org/2000/svg">
<path d="M429.5 1.80029C422.5 6.30029 422.8 4.70029 420.8 42.3003C419.8 61.1003 418.8 78.3003 418.5 80.6003L417.9 84.6003H408.2C400.2 84.6003 397.8 85.0003 394.4 86.8003C392.1 87.9003 390 89.8003 389.7 90.9003C389.5 91.9003 390.1 95.4003 391.2 98.6003C393.1 104.3 393.2 106.5 392.7 153C392.3 184.9 391.8 203.1 391 206.3C389.5 212.4 391.2 215.3 398.1 218.4L403 220.5V232.9C403 242.3 402.7 245.1 401.8 244.7C401.1 244.5 377.5 230 349.3 212.7C321.2 195.3 292.4 178 285.3 174.1C261.5 161 233.3 149.9 210.5 144.5C155.3 131.4 104.2 141.9 71.8 172.8C67.5 176.9 62.7 182.6 61.1 185.4C56.8 193 53.2 203.9 52.1 212.7C50.7 224.2 50.3 221.4 68.1 351C76.8 414.5 87 494.5 87 499C87 502.4 87.1 502.3 64.5 504C35.7 506.2 27.6 507.7 24 511.5L22 513.6L25 550.6C29.3 603.9 30.3 610.9 34.4 613.5C35.6 614.2 43.2 615.5 51.4 616.4C76.2 619.2 87.6 622.6 93.4 629C96.2 632.1 99 638 99 641C99 641.3 91.7 641.5 82.8 641.5C70.2 641.5 65 642 60.1 643.4C22.1 654 2.19997 688.4 0.299967 746.5C-1.50003 803.9 18.8 876.9 49.5 923C69.8 953.5 89.5 967.4 118 971.2C136.7 973.6 156.2 968.5 167.3 958L173.5 952.2L179.4 956.2C192.7 965.1 207.5 970.4 221.9 971.6C236.5 972.8 257.6 968.8 270.5 962.3C282.8 956 294.6 944.3 300.3 932.7C329 873.9 339.4 781.9 326 706.3C324.9 700.1 324 694.6 324 693.9C324 693 328 692.9 340.7 693.4C357.1 694.1 357.4 694.2 360.5 696.9C362.5 698.6 366.5 700.4 370.6 701.5C383.2 704.9 388 707.7 388 711.9C388 712.4 385.6 713 382.8 713.2L377.5 713.5L377.6 722.6C377.8 732 379.1 736 382.8 737.6C383.7 738 389.9 738.6 396.6 739C405.9 739.5 409.4 740.1 412 741.6C414.2 742.8 419.9 749.9 428.2 761.5C449.8 791.7 448.5 791 480.2 791.2C511.2 791.5 513.3 790.7 524.5 775.2C528.3 769.8 536.6 762.2 543.2 758.2C546.6 756.1 546.8 756.1 555.1 757.6C564.6 759.4 570.7 758.9 575.8 755.9C579.2 754 579.9 753.9 595.3 755.1C611.8 756.2 622.6 755.7 625.4 753.7C627.5 752.1 632.2 729.5 632.3 720.2C632.4 708.5 628.6 705 616 705.1C601 705.2 598.1 708.1 597.3 723.9C597 729.4 596.4 734.4 596 735C594.9 736.7 588.1 738 585.4 736.9C582.2 735.7 582.4 733 585.9 729.6C587.5 728 589.9 724.5 591.2 721.6C593.3 716.9 593.5 715.2 593.4 700.8C593.3 685.4 593.2 685.1 590.6 682C587.4 678.1 587.3 676.2 590.3 675.6C596.6 674.3 623.4 672.8 630.9 673.4C642.3 674.2 645.6 675.2 645.3 677.6C645.2 678.6 644.4 688.7 643.6 700C642.5 714 641.6 720.6 640.8 720.9C640.2 721.1 638.5 722.4 637.2 723.7C635 725.9 634.8 726.8 635.2 733.5C635.5 740.2 635.8 741.2 638.7 744.2C645.1 750.8 645.9 755.7 644.7 781C644.1 793.7 643.8 795.5 642.2 795.8C637 796.9 633.4 805.1 634.2 814.2C634.5 818.1 636.3 822.9 641 832.2C649 848.3 649.5 852.1 645.1 861.6C643.4 865.2 642 869.6 642 871.4C642.1 875.5 645.2 882.4 649.7 887.8C654 893 655.9 897.9 656 903.8C656 910.3 659.7 927 663 936.1C669.1 952.8 678.5 967 685.7 970.6C689.3 972.4 692.9 972.5 749.7 972.4L809.9 972.3L811.9 969.9C821.2 959 834.3 924 843.9 885C871.1 773.4 881 636.9 870.4 518C867.8 489.1 866.4 480.3 863 473.3C853 453 823.8 435.2 791 429.5C777.8 427.2 747.9 426.4 735.4 428C717.9 430.2 704.8 435.4 697.3 443.3C693.5 447.3 693.2 448.1 690.6 460.9C687.7 476.2 687.1 477.1 677.4 482.5C666.6 488.6 664.1 493.8 667.1 503.9C668 506.8 667.8 509 666.1 515.7C664.9 520.2 663.5 528.5 662.8 534.2L661.7 544.5L655 551.5C642.8 564.2 642.6 565.4 650.1 581.2C655.8 593.2 655.8 592.9 652.7 612.1C651 623.1 648.8 628.4 646.2 627.6C645.3 627.3 640.3 626.8 635.3 626.4L626 625.7V622.1C626 620.1 627.2 611.5 628.6 603C630.5 591.6 631.2 584.6 631 576.5C630.4 547.4 630.2 549.6 635.3 538C641.5 524 641.4 520 634.8 520C632.2 520 631.5 520.8 627.2 529.7C621.7 541.2 619.9 542.4 613.2 539.4L609.1 537.5L616.1 522C630.3 490.7 633.2 481.3 633.4 466.8C633.5 461.4 633.9 457 634.3 457C634.7 457 639.7 454.8 645.3 452.1C657.7 446.1 663.9 440.9 667 433.8C671.3 423.8 667.9 415.2 653.7 400.4L644.9 391.1L646.6 387.8C647.6 385.9 648.5 381.4 648.7 377C649.1 370.6 648.8 368.8 646.8 365C643.7 359 637.3 354.4 628.5 351.8L621.3 349.7L620.7 334.6C620.1 318.1 618.3 309.5 613 296.7C595.3 254.2 546.3 229.7 494.6 237.5C489.1 238.3 484.3 239 483.8 239C483.4 239 483 235.8 483 232C483 224.8 481.4 219.2 478.2 215.6C477.3 214.6 473.2 211.3 469.2 208.3L462 202.9L462.5 190.7C464.8 142.6 465.8 108.9 465.1 105.9C463.8 100 462.3 98.4003 455.6 95.4003L449.1 92.5003L449 83.5003C449 78.5003 449.9 60.5003 451.1 43.5003C453.2 13.7003 453.2 12.3003 451.5 8.70026C449.3 4.00026 444.4 1.00027 437.8 0.400269C433.7 0.000268549 431.8 0.300293 429.5 1.80029ZM446.8 10.5003C448.7 12.8003 449.1 14.1003 448.6 17.4003C448.3 19.7003 447.3 36.8003 446.4 55.5003C445.5 74.2003 444.6 89.7003 444.4 89.9003C444 90.4003 425.7 85.9003 424.8 85.1003C424.4 84.8003 425 71.4003 426 55.5003C429.1 9.6003 428.9 11.3003 431.9 8.90027C435.7 5.80027 443.5 6.70031 446.8 10.5003ZM425.2 94.4003C435.2 96.9003 454.3 104.1 457.6 106.4C459.4 107.8 459.5 109.2 459.3 134.2C459.1 158.6 457.3 208.1 456.5 208.8C456.3 209 454.5 208.7 452.4 208.2C445.6 206.5 442 206 442 206.9C442 207.3 444.5 209.4 447.5 211.4C450.5 213.4 453 215.4 453 215.9C453 218.1 449.4 217.9 445.8 215.4C434.3 207.4 410.7 205.7 402.4 212.3C399.4 214.6 396.7 213.7 396.2 210.2C395.8 207.5 399.1 205.4 405.3 204.5C411.3 203.6 412 202.5 407.5 201C404.9 200.1 403.1 200.1 400.8 200.9C399.1 201.5 397.5 202 397.2 202C396.9 202 396.9 179.4 397.2 151.9C397.7 103.9 397.7 101.7 395.9 99.9003C392.6 96.6003 393.7 93.0003 398.5 91.7003C402.2 90.6003 415.9 92.0003 425.2 94.4003ZM147.4 206C151 207.1 154.2 208.4 154.4 208.9C157.1 213.2 165.9 327.6 176.3 493L177.5 512.5L185 512.2C189.1 512 193.7 511.7 195.3 511.4C197.7 510.9 198 511.1 198 513.7C197.9 517.8 194.7 524.2 191.2 527.1C188.5 529.4 186.8 529.8 174.9 530.9C152.6 532.8 130.2 534 115.8 534H102.2L99.6 528.8C98.2 525.9 97 522.2 97 520.4V517.3L108.3 516.1C126 514.2 126 514.2 126 511.1C126 509.6 122.4 465.9 118 413.9C105.9 271.3 102 221.2 102.7 219.2C104.5 214.2 109.9 209.6 117.9 206.4C125.4 203.3 138 203.1 147.4 206ZM432.1 214.1C439.1 216.5 438.9 215.4 438.3 242.8C438 256.4 437.6 267.6 437.5 267.8C437.4 268 431.9 265.3 425.4 261.8C414.8 256.2 413.4 255.1 412.4 252C411.8 250.1 411 240.8 410.8 231.3C410.3 211.5 409.2 213.4 421.6 213.1C425.5 213.1 430.2 213.5 432.1 214.1ZM537 248.3C548.1 251.2 556.2 254.2 560.8 257C563.8 258.9 564 259.3 562.8 261C562.1 262 556.2 269.8 549.8 278.3C543.3 286.9 533.2 301.1 527.2 309.9L516.2 326L511.8 322.5C509.3 320.6 507 318.5 506.7 317.8C506.5 317.1 502.3 306.4 497.5 294C486.8 266.5 482 252.8 482.7 251.6C483.5 250.3 491.5 247 496.3 246C504.2 244.3 526.5 245.6 537 248.3ZM474.5 265.2C478.6 270 498 312 496.1 312C495.5 312 479.5 300.2 472.3 294.3L468 290.9V280.2C468 261.8 469.3 259 474.5 265.2ZM587.6 275.4C595.2 283.1 597.5 286.1 601.4 294C607.7 307 609.4 314 609.4 328C609.3 339.8 608.1 346.5 603.8 358.3C602 363.3 601.5 364 599.6 363.4C588.9 360.1 528 331.7 528 330C528 328.1 546.9 300.5 564.2 277.2C575.9 261.6 574 261.8 587.6 275.4ZM564.5 357C573.3 360.8 584.5 365.7 589.3 367.9C597.2 371.6 598.1 372.3 597.5 374.3C596.3 378.4 594.8 382 594.1 382C593.8 382 588.1 382.7 581.5 383.5C564.2 385.6 565 385.7 565 381.2C565 371.8 561.8 366.9 547.7 354.7C544 351.5 541 348.5 541 348C541 347 541.4 347.2 564.5 357ZM631.3 361.1C637.2 364.2 641 370.3 641 376.7C641 380.9 638.4 387.4 637 386.5C636.4 386.1 636.1 386.4 636.2 387.1C636.4 387.8 635 389.4 633.1 390.7C628.4 393.9 619.7 393.9 614.9 390.7C611 388.1 607 381 607 376.5C607 372 611 364.9 614.9 362.3C618.7 359.7 627.4 359.1 631.3 361.1ZM591 388.7C591 389.2 589.7 391.8 588.1 394.6C585.4 399.2 569.9 415 568.1 415C567.3 415 566 402.3 566 394.8C566 390.6 566 390.6 579.5 389.1C589.3 387.9 591 387.9 591 388.7ZM608.2 394.5C615.9 398.8 615.6 398 616.9 423.4C617.5 436.1 617.8 446.6 617.6 446.8C616.5 447.8 608.9 449 602.9 449C594.7 449 580.7 446.6 574.3 444.1C569.1 442.1 568.4 440.7 568.1 432.3C568 428.3 568.3 428 575.9 421.6C584.5 414.4 592.9 405.7 599.2 397.4C601.4 394.4 603.4 392 603.5 392C603.6 392 605.8 393.1 608.2 394.5ZM644.5 408.2C654.4 417.4 658 422.9 658 428.9C658 432.8 657.5 433.8 653.7 437.4C650.6 440.4 647.4 442.2 641.5 444.2C628.8 448.4 629.2 448.4 627.8 443.7C625.9 437.2 626.3 417.5 628.4 412C630.4 406.6 634.1 401 635.6 401C636.1 401 640.2 404.3 644.5 408.2ZM782 434C815 438 842.4 452.8 851.5 471.4C854.6 477.7 856.5 488.3 855.6 493.4C855 496.7 854.7 496.9 852.8 495.9C849.4 494.1 840.7 494.6 836.4 496.8C826.9 501.7 816.5 516.3 809.1 535.5C794.1 573.8 783 637.5 782.6 686.7C782.5 704.4 782.9 709.5 784.4 707.9C784.6 707.7 786.9 693.1 789.4 675.5C794.8 638.6 798.6 618.5 803.5 600.5C807.3 586.6 811 577.4 811.7 580.2C811.9 581.1 810.3 592.1 808.1 604.7C782 751.3 778.2 852.4 798 873.1C801.2 876.5 802.3 877 806.2 877C815.6 877 825.3 866.4 837.1 843C841.6 834.2 841.9 833.7 842 837C842.7 853 838.3 874.4 830.4 893.9C821.3 916.6 810.1 927.7 799.3 924.8C794.4 923.5 785.6 914.5 781.4 906.6L778.3 900.8L772.3 908.6C763.6 920 754.3 928.4 747.5 930.9C740.1 933.7 737.6 933.6 735.1 930.4C730.9 925.1 732.8 922.1 744.5 915C755.5 908.4 763 901.4 766.6 894.6C769.3 889.5 769.4 888.9 767.8 887.4C766.3 885.9 765.8 885.9 760.8 888.2C757.9 889.6 752.4 892.8 748.7 895.3C740.3 901.1 736.4 901.5 730.3 897C728.1 895.3 725.4 892.8 724.5 891.3C722.7 888.7 722.8 888.6 725.6 886.3C727.2 885 731.7 882.4 735.5 880.3C745.3 875.2 752.9 870.3 756.8 866.6C760.6 863.1 765.6 855.2 764.6 854.3C763.4 853.1 751.6 858 739.2 864.9C727.2 871.5 722.1 873.8 715.8 875.4C713.1 876 713 875.9 713 872.4C713 867.4 717.4 863.5 734.2 853.5C750 844.2 758 838.5 758 836.5C758 834.3 757.2 834.6 747.5 840.2C734.9 847.4 728.4 849.9 722.3 850H717.2V845.6C717.2 843.2 716.7 840.4 716.2 839.3C715.6 838.3 702.1 829.2 686 819L656.9 800.5L657.2 790.5C657.5 782.3 658 779.6 660 775.7C661.3 773 662.8 770.6 663.2 770.4C664 769.9 668.3 770.9 685.9 775.6C692.8 777.5 699.4 779 700.7 779C704 779 703.6 776.7 699.4 772.1C695.5 767.7 684 761.4 663.5 752.5C656.4 749.4 648.8 745.8 646.8 744.4C643.5 742.3 643 741.5 643 738.1C643 729.4 652.6 727.6 665 733.9C668.3 735.6 678.5 742 687.7 748.2C697 754.4 705 759.7 705.5 759.9C707.5 760.6 696.3 749.6 689.2 743.9C680.6 736.9 671.4 731.5 660.8 726.9C655.8 724.8 653 723 653 722C653.1 721.2 654.8 714.3 656.8 706.7C659.5 696.7 661.1 692.5 662.5 691.7C663.5 691.2 667 690.7 670.1 690.7C674.8 690.8 677.9 691.7 687.1 695.9C693.2 698.7 698.6 701 699 701C699.4 701 700.1 700.3 700.4 699.4C702 695.2 696 690.8 669.9 676.7C645.8 663.8 643.7 662.3 644.5 659.1C645.4 655.7 646.9 654 648.9 654C651.5 654 683.5 670.5 691.9 676.2C698.2 680.4 699.7 681 701.5 680.2C704.3 678.9 705.6 674.4 703.8 672.2C702 670 688.9 661.7 672.8 652.6L659 644.8V640.9C659 623.1 672.4 596.4 682.2 594.6C686.7 593.8 697.4 596.2 705.8 599.9C709.7 601.6 714.3 603 716.2 603C724.2 603 730.4 595 730.5 584.4C730.5 572 725.3 568.2 692.1 556.4C668.6 548.2 669.8 549.3 672.5 537.5C675.2 525 681.3 518.3 693.6 513.8C698.3 512.1 702.6 511.6 715.3 511.2C723.9 511 731 510.4 731 510C731 508.8 723 505.4 716 503.6C702.1 500.2 686.2 499.3 673.6 501.2C668.8 502 669.1 495.2 674.2 489.5C678 485 679.9 484.1 686 483.1C696.1 481.5 709.5 484.8 726.4 493.1C731.9 495.8 736.5 497.8 736.7 497.6C736.9 497.4 734.7 495.1 731.8 492.5C726.4 487.6 717.3 482.5 710.5 480.5C707 479.4 706.5 478.9 706.2 476.1C705.7 470.9 711.5 466.1 724.2 461.2C729.9 459 736.4 456.6 738.8 455.9C741.1 455.2 742.7 454.3 742.3 453.9C740.7 452.3 729.4 450 723.5 450C716.6 450 707.8 452 702 455L698 457L697.4 454.5C695 444.7 706.9 440.1 731.5 441.3L743.5 441.9L740.8 439.9C739.2 438.8 738 437.5 738 437C738 436.6 741.3 435.7 745.3 435C749.2 434.4 753.2 433.7 754 433.5C757.7 432.8 774.3 433.1 782 434ZM624 469.3C624 480.4 617.7 497.3 606.1 517.6L603.1 522.7L597 523.3C589.8 523.9 588.3 525 583.3 533.4C577.8 542.5 574.4 546.6 570.6 548.4C565.2 551 565 550.7 565 541.7V533.4L569.4 532.2C576.1 530.4 579.5 525.5 579.5 517.5V511.3L584.2 508.5C589.3 505.4 591.3 502.5 590.8 498.9C590.5 496.7 590.1 496.5 584.5 496.5C579.6 496.5 578.5 496.2 578.2 494.8C577.8 492.8 580.7 491.3 590.4 488.3C594.4 487.1 597 485.6 598.4 483.7C600.3 481.1 600.3 480.7 598.9 478.2C597.9 476.4 595.8 475 592.5 473.9L587.5 472.3L594.5 471.5C605.2 470.4 614.4 468.4 618.7 466.1C620.8 465 622.8 464.1 623.3 464C623.7 464 624 466.4 624 469.3ZM665.5 556.4C677.4 559.6 720.6 575.3 721.8 576.8C723.7 579.2 722.8 588.4 720.5 591C718.1 593.7 717.2 593.6 710.4 589.5C702.2 584.5 691.6 581.4 672.9 578.5C664.1 577.1 656.4 576 656 576C650.3 576 651.1 559.3 657 556.3C660.1 554.7 659.5 554.7 665.5 556.4ZM255.1 645.1L258.8 646.3L253.8 648.8C247 652.2 236.4 662.3 230.2 671.3C196.1 720.6 186.1 812.4 203.7 914C208.4 941.1 208.4 941 207.2 941C203.7 941 199.2 931.8 195.7 916.9C189.3 890.3 186 856.9 186 818C186 731.5 204.5 669 236.5 647.4C242 643.7 247.8 643 255.1 645.1ZM220.4 649.7C210.3 665 198.9 688.4 193.1 705.5C185.7 727.5 180.6 751.7 177.3 781.3C175.1 800.7 174.9 863.3 176.9 887.8C177.6 896.8 178 904.3 177.8 904.5C177.6 904.7 176.5 904.1 175.2 903.2C173.4 901.8 172.4 898.8 170.1 887.3C160 838.5 160 774.7 170.1 724.5C171.7 716.3 173.3 709.4 173.5 709.1C173.8 708.9 173.9 713.9 173.7 720.3C173.6 727.2 173.9 732.3 174.5 732.9C175.2 733.6 177.8 727.7 182.5 714.3C193.8 682.3 201.6 667.7 214.4 654.3C221.7 646.5 223.4 645.3 220.4 649.7ZM266.9 653.9C246.9 668.2 229.3 710.8 222 763C211.1 840.1 224.5 916.9 252.2 937L256.3 940H251.9C249.5 939.9 244.6 938.9 241 937.7C236.1 936 234 934.7 232.3 932.2C227 924.2 222.5 906.9 218.5 879.5C214.3 850.5 213.5 838.1 213.7 808.1C213.7 792.6 213.4 780.2 213 780.6C211 782.7 208 794.4 206.9 804.5C204.9 822.8 206.5 846.1 213.1 893.8C214.7 906 216 918 215.8 920.3C215.5 924.4 215.4 924.3 212.3 915C199.1 875.1 197.6 814.4 208.6 758.5C213.8 731.8 220.8 710.4 231 689.5C240.4 670.1 246.4 661.2 252.8 657.1C258.8 653.3 266.5 650.1 269.9 650C271.9 650 271.4 650.7 266.9 653.9ZM507.8 752.2C504.5 758.1 500.4 761.8 496.4 762.6C490.3 763.7 475.8 762.5 471.7 760.5C468 758.8 463 752.9 463 750.3C463 748.8 468.1 748.4 491.8 748.2L510.1 748L507.8 752.2ZM659.9 813.9C663 815.4 670.7 819.9 677 823.7C683.3 827.6 692.6 832.9 697.5 835.5C702.5 838.1 707 841.2 707.7 842.3C709.3 845.3 710.3 851.5 709.5 853.9C709 855.7 708.6 855.7 704.2 854.5C692.3 851.3 685.5 847.7 663.3 832.8C646.8 821.7 646.6 821.6 647.3 817.2C648.5 810.2 651.3 809.5 659.9 813.9ZM706.7 899.2L716.8 904.4L718.4 910C721.6 921.3 721 921.7 707.3 916.9C681.5 907.8 662 891.5 662 879V875.9L679.3 885C688.7 890 701.1 896.4 706.7 899.2Z" fill="url(#paint0_linear)"/>
<path d="M132.8 216.4C132 218.3 134.2 251.4 142.5 363.2C148.6 445.2 153.7 508.6 154.4 510C155 511.4 156.3 512.6 157.3 512.8C160.6 513.4 162 511.1 162 505.2C162 500.5 157.4 437.2 143 245.1C140.9 217.4 140.1 214 136 214C134.8 214 133.5 215 132.8 216.4Z" fill="url(#paint1_linear)"/>
<path d="M113 222.5C111.9 225.5 135.3 509.9 137 513C138.4 515.7 141.8 515.5 143.1 512.7C144.3 510 120.8 225.4 119.1 222.1C117.5 219.2 114.2 219.4 113 222.5Z" fill="url(#paint2_linear)"/>
<path d="M752 455.6C741.6 457.8 733.5 462.3 730.4 467.5C727.4 472.7 727.7 474.4 732.5 479C737.2 483.5 744 484.1 756 481C760.7 479.8 768.4 478.5 773.2 478.3C783.8 477.6 788.5 479 800.1 486C804.7 488.7 808.6 490.7 808.9 490.5C809.1 490.2 808 488.6 806.4 486.9C797.3 477.3 780.5 472.1 756.1 471.4C745.4 471.1 741.1 470.6 739.3 469.5C738 468.6 737 467.5 737 467C737 465 749.7 460 757.7 458.8C767.5 457.4 784.9 458.8 797 461.9C806.8 464.5 803.8 462 793 458.6C778.8 454.1 763.9 453 752 455.6Z" fill="url(#paint3_linear)"/>
<path d="M761.9 514C738.8 518.3 721.9 525.1 711.6 534.2C703.7 541.1 702.3 546.1 706.2 553.1C710.8 561.3 720.1 564.7 725.7 560.2C743.7 545.9 764.1 536.3 780.5 534.4C783.6 534 786.3 533.3 786.6 532.9C787.3 531.7 777.8 531.8 766.2 533C751 534.6 740.1 539.3 727.3 549.7C721.3 554.6 719.6 554.9 714.9 551.7C712.2 549.9 711.4 548.7 711.2 545.6C710.9 542.4 711.4 541.4 714.4 538.5C721.2 532.1 736.8 524.9 759 518C766.4 515.7 773.4 513.4 774.5 513C776.3 512.2 776.3 512.1 774 512.2C772.6 512.2 767.2 513 761.9 514Z" fill="url(#paint4_linear)"/>
<path d="M768.5 610.6C768 610.8 753.8 612.9 737 615.4C703.5 620.3 696.9 622 692.1 627.6C687.7 632.6 683.4 650.3 685.8 653.8C688.1 657.3 698.9 656.9 714.4 653C724.6 650.3 744.9 642.9 754.2 638.5L761.5 635L753.5 635.5C742.7 636.2 734.3 638.1 716.3 644C702.6 648.5 695.3 650 693.8 648.5C691.7 646.4 699.8 627.5 703.3 626C704.5 625.5 719 622.3 735.5 619C765.6 613 773 611.3 773 610.5C773 609.9 769.9 610 768.5 610.6Z" fill="url(#paint5_linear)"/>
<path d="M751 695.9C732.9 699.7 727 701.4 717.4 706C708.4 710.3 699.2 718 694.9 724.8C692.3 729 692.3 729.1 693.6 735.6C696.3 748.5 700.1 753.6 704.8 751.1C705.9 750.5 711.5 746.2 717.4 741.6C727.9 733.2 736.7 727.5 746.5 722.9C755.2 718.8 751.2 717.3 740.5 720.7C733.9 722.8 727.9 725.8 713.8 734.2C707.3 738.1 701.6 740.9 701 740.5C700.3 740.1 699.1 738.2 698.3 736.2L696.9 732.7L701.2 728.3C712.2 716.9 729.8 707.8 759.3 698.1C763.4 696.7 766 695.3 766 694.4C766 692.7 767.2 692.6 751 695.9Z" fill="url(#paint6_linear)"/>
<path d="M757.4 779.1C752.1 785 742.3 789 725.5 792C703.1 796.1 698.8 798.5 697.5 807.8C696.6 814.5 697.6 818.7 700.6 820.7C704 822.9 709.6 821.6 730.9 813.6C740 810.2 749.5 806.8 752 806C754.5 805.3 755.9 804.5 755.3 804.3C753 803.5 743.9 805.8 726.5 811.6C708.1 817.8 704.6 818.1 703.4 813.6C702.7 810.9 704.8 806.5 708.2 803.3C711.8 799.9 717.4 798 729.9 795.8C743 793.6 749 791.3 753.8 786.7C757.1 783.5 760.5 778.2 759.7 777.4C759.5 777.2 758.5 777.9 757.4 779.1Z" fill="url(#paint7_linear)"/>
<defs>
<linearGradient id="paint0_linear" x1="875" y1="653.5" x2="-47" y2="486" gradientUnits="userSpaceOnUse">
<stop/>
<stop offset="0.1875" stop-color="#40080A"/>
<stop offset="0.364583" stop-color="#7D0F13"/>
<stop offset="0.536458" stop-color="#AD141A"/>
<stop offset="0.651042" stop-color="#D01920"/>
<stop offset="0.791667" stop-color="#E51B23"/>
<stop offset="0.963542" stop-color="#ED1C24"/>
</linearGradient>
<linearGradient id="paint1_linear" x1="147.323" y1="512.893" x2="147.323" y2="214" gradientUnits="userSpaceOnUse">
<stop stop-color="#ED1C24"/>
<stop offset="1"/>
</linearGradient>
<linearGradient id="paint2_linear" x1="128.053" y1="514.917" x2="128.053" y2="220.045" gradientUnits="userSpaceOnUse">
<stop stop-color="#ED1C24"/>
<stop offset="1"/>
</linearGradient>
<linearGradient id="paint3_linear" x1="768.689" y1="490.514" x2="768.689" y2="454.217" gradientUnits="userSpaceOnUse">
<stop stop-color="#ED1C24"/>
<stop offset="1"/>
</linearGradient>
<linearGradient id="paint4_linear" x1="745.37" y1="562.201" x2="745.37" y2="512.168" gradientUnits="userSpaceOnUse">
<stop stop-color="#ED1C24"/>
<stop offset="1"/>
</linearGradient>
<linearGradient id="paint5_linear" x1="729.056" y1="656.193" x2="729.056" y2="610.097" gradientUnits="userSpaceOnUse">
<stop stop-color="#ED1C24"/>
<stop offset="1"/>
</linearGradient>
<linearGradient id="paint6_linear" x1="729.383" y1="751.716" x2="729.383" y2="693.238" gradientUnits="userSpaceOnUse">
<stop stop-color="#ED1C24"/>
<stop offset="1"/>
</linearGradient>
<linearGradient id="paint7_linear" x1="728.5" y1="821.655" x2="728.5" y2="777.366" gradientUnits="userSpaceOnUse">
<stop stop-color="#ED1C24"/>
<stop offset="1"/>
</linearGradient>
</defs>
</svg>
