<svg width="512" height="290" viewBox="0 0 512 290" fill="none" xmlns="http://www.w3.org/2000/svg">
<path d="M9.50402 279.503C15.8331 285.838 23.3354 289.002 32.0041 289.002L479.998 289.002C488.67 289.002 496.167 285.838 502.501 279.503C508.835 273.162 512 265.665 512 256.998C512 248.333 508.835 240.836 502.501 234.5L278.504 10.502C272.162 4.1677 264.665 0.996161 256 0.99616C247.335 0.99616 239.831 4.16769 233.502 10.502L9.50403 234.501C3.17675 240.836 -3.25396e-05 248.333 -3.32973e-05 257C-3.40548e-05 265.665 3.17674 273.162 9.50402 279.503Z" fill="#797979"/>
</svg>
