<svg id="_x31__px" height="512" viewBox="0 0 24 24" width="512" xmlns="http://www.w3.org/2000/svg"><g><path d="m21 24h-18c-1.654 0-3-1.346-3-3s1.346-3 3-3h18c1.654 0 3 1.346 3 3s-1.346 3-3 3zm-18-5c-1.103 0-2 .897-2 2s.897 2 2 2h18c1.103 0 2-.897 2-2s-.897-2-2-2z"/></g><g><path d="m3 22c-.551 0-1-.449-1-1s.449-1 1-1 1 .449 1 1-.449 1-1 1zm0-1.001c0 .001 0 .001 0 0l.5.001z"/></g><g><path d="m9 22c-.551 0-1-.449-1-1s.449-1 1-1 1 .449 1 1-.449 1-1 1zm0-1.001c0 .001 0 .001 0 0l.5.001z"/></g><g><path d="m15 22c-.551 0-1-.449-1-1s.449-1 1-1 1 .449 1 1-.449 1-1 1zm0-1.001c0 .001 0 .001 0 0l.5.001z"/></g><g><path d="m21 22c-.551 0-1-.449-1-1s.449-1 1-1 1 .449 1 1-.449 1-1 1zm0-1.001c0 .001 0 .001 0 0l.5.001z"/></g><g><path d="m16.5 19h-5c-.276 0-.5-.224-.5-.5v-5c0-.276.224-.5.5-.5h5c.276 0 .5.224.5.5v5c0 .276-.224.5-.5.5zm-4.5-1h4v-4h-4z"/></g><g><path d="m19.5 14h-5c-.276 0-.5-.224-.5-.5v-5c0-.276.224-.5.5-.5h5c.276 0 .5.224.5.5v5c0 .276-.224.5-.5.5zm-4.5-1h4v-4h-4z"/></g><g><path d="m21.5 19h-5c-.276 0-.5-.224-.5-.5v-5c0-.276.224-.5.5-.5h5c.276 0 .5.224.5.5v5c0 .276-.224.5-.5.5zm-4.5-1h4v-4h-4z"/></g><g><path d="m6 9c-1.378 0-2.5-1.122-2.5-2.5s1.122-2.5 2.5-2.5 2.5 1.122 2.5 2.5-1.122 2.5-2.5 2.5zm0-4c-.827 0-1.5.673-1.5 1.5s.673 1.5 1.5 1.5 1.5-.673 1.5-1.5-.673-1.5-1.5-1.5z"/></g><g><path d="m6.775 13h-1.55c-.51 0-.932-.388-.98-.903l-.124-1.273c-.29-.134-.567-.299-.829-.495l-1.121.521c-.469.217-1.013.039-1.268-.416l-.774-1.38c-.248-.443-.129-1.003.276-1.303l1-.74c-.019-.156-.033-.329-.033-.511s.014-.355.033-.511l-1-.74c-.405-.3-.524-.86-.277-1.303l.775-1.381c.254-.453.799-.633 1.268-.415l1.121.521c.261-.196.539-.361.829-.495l.124-1.274c.048-.514.47-.902.98-.902h1.55c.51 0 .932.388.98.903l.124 1.273c.291.134.568.299.829.495l1.121-.521c.469-.215 1.014-.039 1.268.416l.774 1.38c.248.443.129 1.003-.276 1.303l-1 .74c.019.156.033.33.033.511s-.014.355-.033.511l1 .74c.405.3.524.86.277 1.303l-.775 1.381c-.253.453-.798.631-1.267.415l-1.121-.521c-.261.196-.539.361-.829.495l-.124 1.274c-.049.514-.471.902-.981.902zm-3.412-3.755c.118 0 .234.042.326.121.328.283.69.5 1.076.645.179.067.303.229.322.419l.153 1.571 1.535-.001.138-1.57c.019-.19.143-.353.322-.419.386-.146.748-.362 1.076-.645.148-.128.36-.157.537-.075l1.402.652.749-1.378-1.24-.928c-.151-.112-.227-.3-.196-.486.037-.212.065-.427.065-.651s-.028-.439-.065-.651c-.031-.186.045-.374.196-.486l1.241-.918-.776-1.391-1.376.655c-.179.082-.389.054-.537-.075-.327-.282-.689-.499-1.076-.645-.179-.067-.303-.229-.322-.419l-.153-1.571-1.535.001-.138 1.57c-.019.19-.143.352-.322.419-.386.146-.748.363-1.076.645-.148.128-.359.158-.537.075l-1.402-.652-.749 1.378 1.24.928c.151.112.227.299.196.485-.037.213-.065.428-.065.652s.028.439.065.651c.031.186-.044.374-.196.485l-1.241.919.776 1.391 1.376-.655c.067-.031.14-.046.211-.046z"/></g></svg>