<svg width="325" height="325" viewBox="0 0 325 325" fill="none" xmlns="http://www.w3.org/2000/svg">
<g clip-path="url(#clip0)">
<path d="M2.18065 181.753C3.23399 188.356 9.44053 192.854 16.0429 191.8C22.6452 190.747 27.143 184.54 26.0897 177.938C26.0783 177.866 26.0663 177.794 26.0535 177.722C13.7255 105.151 62.5621 36.3275 135.133 23.9995C207.704 11.6716 276.528 60.5082 288.856 133.079C301.184 205.65 252.347 274.474 179.776 286.802C135.147 294.383 89.7199 278.794 59.1503 245.406L112.778 227.538C119.123 225.427 122.554 218.573 120.443 212.229C120.443 212.228 120.442 212.226 120.441 212.224C118.33 205.88 111.477 202.449 105.133 204.559C105.131 204.56 105.129 204.561 105.128 204.561L32.4934 228.772C27.548 230.419 24.2121 235.047 24.2128 240.26L24.2128 312.894C24.2128 319.581 29.6327 325 36.3188 325C43.0048 325 48.4247 319.581 48.4247 312.894L48.4247 268.673C110.768 327.969 209.377 325.498 268.673 263.155C327.969 200.811 325.5 102.203 263.155 42.9057C200.811 -16.3912 102.203 -13.9207 42.9062 48.4235C9.09367 83.9746 -5.99638 133.377 2.18065 181.753Z" fill="#797979"/>
<g clip-path="url(#clip1)">
<path d="M223.824 102.317L162.65 67L101.478 102.317L162.65 137.636L223.824 102.317Z" fill="#797979"/>
<path d="M167.09 216L228.28 180.672V110L167.09 145.326V216Z" fill="#797979"/>
<path d="M97.0215 110V180.672L158.21 216V145.326L97.0215 110Z" fill="#797979"/>
</g>
</g>
<defs>
<clipPath id="clip0">
<rect x="325" y="325" width="325" height="325" transform="rotate(-180 325 325)" fill="white"/>
</clipPath>
<clipPath id="clip1">
<rect x="88" y="67" width="149" height="149" fill="white"/>
</clipPath>
</defs>
</svg>
