<?xml version="1.0"?>
<svg xmlns="http://www.w3.org/2000/svg" viewBox="0 0 96 96" width="512px" height="512px"><g><g id="_01-cart" data-name="01-cart"><g id="Glyph"><path d="M95.209,25.7A4,4,0,0,0,92,24.087H19.589l-3.743-13.1a4,4,0,0,0-3.817-2.9L.029,8l-.058,8,9.006.065L24.154,69.186A4,4,0,0,0,28,72.087H38.613a12,12,0,1,0,2.774,0H66.613a12,12,0,1,0,2.774,0H80a4,4,0,0,0,3.832-2.851L89,52H40V44H91.4l4.43-14.764A4,4,0,0,0,95.209,25.7ZM44,84a4,4,0,1,1-4-4A4,4,0,0,1,44,84Zm28,0a4,4,0,1,1-4-4A4,4,0,0,1,72,84Z" data-original="#000000" class="active-path" data-old_color="#000000" fill="#FFFFFF"/></g></g></g> </svg>
